# xmcd CD database file
#
# Track frame offsets:
#	150
#	14675
#	25759
#	42172
#	48337
#	69847
#	87195
#	101355
#	125895
#	149788
#	168015
#
# Disc length: 2607 seconds
#
# Revision: 0
# Processed by: cddbd v1.5PL3 Copyright (c) Steve Scherf et al.
# Submitted via: CDex 1.51
#
DISCID=8f0a2d0b
DTITLE=オナニーマシーン - パンツの穴
DYEAR=2004
DGENRE=General Pop
TTITLE0=とび出せ性春!! ?大変な変態?
TTITLE1=乱交パーティー
TTITLE2=ニャンニャン
TTITLE3=ツメ切り
TTITLE4=カラッポ
TTITLE5=ヤラハタ
TTITLE6=I ? オナニー
TTITLE7=パンツの穴
TTITLE8=家出
TTITLE9=オナニーマシーンのテーマ
TTITLE10=さよーならオナニー
EXTD=YEAR: 2004
EXTT0=
EXTT1=
EXTT2=
EXTT3=
EXTT4=
EXTT5=
EXTT6=
EXTT7=
EXTT8=
EXTT9=
EXTT10=
PLAYORDER=
